<svg width="42" height="42" viewBox="0 0 42 42" fill="none" xmlns="http://www.w3.org/2000/svg">
<circle cx="21" cy="21" r="21" fill="#C29892"/>
<g clip-path="url(#clip0)">
<path d="M21.8332 30.1042V12.8515L26.5972 18.5087C26.7272 18.6631 26.9385 18.6631 27.0685 18.5087C27.1985 18.3544 27.1985 18.1034 27.0685 17.949L21.7359 11.6166C21.7052 11.5802 21.6679 11.5508 21.6272 11.5303C21.5459 11.4899 21.4539 11.4899 21.3726 11.5303C21.3312 11.5501 21.2946 11.5794 21.2639 11.6166L15.9313 17.949C15.866 18.0266 15.8333 18.1279 15.8333 18.2293C15.8333 18.3306 15.866 18.4319 15.9307 18.5095C16.0607 18.6639 16.272 18.6639 16.402 18.5095L21.1666 12.8515V30.1042C21.1666 30.3227 21.3159 30.5 21.4999 30.5C21.6839 30.5 21.8332 30.3227 21.8332 30.1042Z" fill="white"/>
</g>
<defs>
<clipPath id="clip0">
<rect width="19" height="16" fill="white" transform="translate(29.5 11.5) rotate(90)"/>
</clipPath>
</defs>
</svg>
