<svg width="45" height="45" viewBox="0 0 45 45" fill="none" xmlns="http://www.w3.org/2000/svg">
<path d="M43.6816 25.6641H42.2754V6.76758C42.2754 6.03949 41.6851 5.44922 40.957 5.44922H28.2129V1.31836C28.2129 0.590273 27.6226 0 26.8945 0H18.1055C17.3774 0 16.7871 0.590273 16.7871 1.31836V5.44922H4.04297C3.31488 5.44922 2.72461 6.03949 2.72461 6.76758V25.6641H1.31836C0.590273 25.6641 0 26.2543 0 26.9824V32.2559C0 32.9839 0.590273 33.5742 1.31836 33.5742H12.6701L8.96484 43.208C8.70346 43.8876 9.04245 44.6504 9.72202 44.9118C9.87768 44.9716 10.0376 45 10.195 45C10.7247 45 11.2242 44.6785 11.4258 44.1546L12.8694 40.4012L21.1816 38.336V41.9235C21.1816 42.6516 21.7719 43.2418 22.5 43.2418C23.2281 43.2418 23.8184 42.6516 23.8184 41.9235V38.336L32.1306 40.4012L33.5742 44.1546C33.7758 44.6785 34.2753 45 34.805 45C34.9623 45 35.1223 44.9716 35.278 44.9118C35.9576 44.6504 36.2965 43.8877 36.0352 43.208L32.3299 33.5742H43.6816C44.4097 33.5742 45 32.9839 45 32.2559V26.9824C45 26.2543 44.4097 25.6641 43.6816 25.6641ZM19.4238 2.63672H25.5762V5.44922H19.4238V2.63672ZM5.36133 8.08594H39.6387V25.6641H5.36133V8.08594ZM14.0247 37.3973L15.4951 33.5742H21.1816V35.6192L14.0247 37.3973ZM30.9752 37.3972L23.8184 35.6191V33.5742H29.5049L30.9752 37.3972ZM42.3633 30.9375H2.63672V28.3008H42.3633V30.9375Z" fill="#8A5C56"/>
<path d="M26.4536 10.8669C25.2314 10.1966 23.7806 10.1083 22.4993 10.5898C21.1988 10.0986 19.7514 10.2038 18.5438 10.8671C16.7365 9.87522 14.4292 10.1551 12.9092 11.6712C12.013 12.5665 11.5195 13.7574 11.5195 15.0245C11.5195 16.2916 12.013 17.4824 12.9087 18.3774L17.6119 23.0806C17.8694 23.3381 18.2068 23.4668 18.5442 23.4668C18.8816 23.4668 19.219 23.3381 19.4764 23.0806L22.4993 20.0578L25.5222 23.0807C25.7693 23.3278 26.1046 23.4668 26.4544 23.4668C26.8041 23.4668 27.1394 23.3278 27.3865 23.0806L32.0894 18.3778C32.9854 17.4824 33.479 16.2916 33.479 15.0245C33.479 13.7574 32.9855 12.5665 32.0894 11.6712C30.5697 10.1528 28.2616 9.87276 26.4536 10.8669ZM18.5442 20.284L14.7728 16.5126C14.3753 16.1154 14.1563 15.5869 14.1563 15.0245C14.1563 14.4621 14.3752 13.9337 14.7719 13.5372C15.5632 12.7482 16.8342 12.7121 17.6655 13.4552C18.1662 13.9027 18.9233 13.9024 19.4235 13.4544C19.5396 13.3505 19.6653 13.2624 19.7972 13.1884C19.5564 13.7621 19.4296 14.3834 19.4296 15.0245C19.4296 16.2043 19.8579 17.3177 20.6399 18.1881L18.5442 20.284ZM30.2253 16.513L26.4544 20.284L22.683 16.5126C22.2854 16.1154 22.0664 15.5869 22.0664 15.0246C22.0664 14.4621 22.2853 13.9337 22.6822 13.5373C23.093 13.1275 23.6331 12.9208 24.174 12.9208C24.6747 12.9208 25.1761 13.098 25.5758 13.4553C26.0764 13.9028 26.8335 13.9025 27.3338 13.4545C28.1646 12.7105 29.4351 12.7464 30.2257 13.5365C30.6233 13.9337 30.8423 14.4622 30.8423 15.0246C30.8423 15.5869 30.6234 16.1154 30.2253 16.513Z" fill="#8A5C56"/>
</svg>
