<svg width="45" height="45" viewBox="0 0 45 45" fill="none" xmlns="http://www.w3.org/2000/svg">
<g clip-path="url(#clip0)">
<path d="M40.166 27.4219H38.6931L37.9586 21.5455C37.8761 20.8857 37.3153 20.3906 36.6504 20.3906H33.1348C32.6354 20.3906 32.179 20.6727 31.9555 21.1194L28.8043 27.4219H12.4359L16.5113 20.6295C16.8859 20.0051 16.6835 19.1953 16.0591 18.8207C15.4348 18.4459 14.625 18.6484 14.2503 19.2729L9.20531 27.6812L3.59121 29.9268C1.40968 30.7994 0 32.8815 0 35.2311V39.2871C0 40.0152 0.590273 40.6055 1.31836 40.6055H4.54975C5.1467 43.1218 7.41111 45 10.1074 45C12.8037 45 15.0681 43.1218 15.6651 40.6055H29.335C29.9319 43.1218 32.1964 45 34.8927 45C37.589 45 39.8534 43.1218 40.4503 40.6055H43.6816C44.4097 40.6055 45 40.0152 45 39.2871V32.2559C45 29.5904 42.8315 27.4219 40.166 27.4219ZM33.9496 23.0273H35.4866L36.0359 27.4219H31.7523L33.9496 23.0273ZM2.63672 35.2311C2.63672 33.9659 3.39574 32.8449 4.5704 32.375L10.3613 30.0586H21.1816V37.9688H15.6651C15.0681 35.4524 12.8037 33.5742 10.1074 33.5742C7.41111 33.5742 5.1467 35.4524 4.54975 37.9688H2.63672V35.2311ZM10.1074 42.3633C8.41122 42.3633 7.03125 40.9833 7.03125 39.2871C7.03125 37.5909 8.41122 36.2109 10.1074 36.2109C11.8036 36.2109 13.1836 37.5909 13.1836 39.2871C13.1836 40.9833 11.8036 42.3633 10.1074 42.3633ZM34.8926 42.3633C33.1964 42.3633 31.8164 40.9833 31.8164 39.2871C31.8164 37.5909 33.1964 36.2109 34.8926 36.2109C36.5888 36.2109 37.9688 37.5909 37.9688 39.2871C37.9688 40.9833 36.5888 42.3633 34.8926 42.3633ZM42.3633 37.9688H40.4503C39.8533 35.4524 37.5889 33.5742 34.8926 33.5742C32.1963 33.5742 29.9319 35.4524 29.3349 37.9688H23.8184V30.0586H40.166C41.3776 30.0586 42.3633 31.0443 42.3633 32.2559V37.9688Z" fill="#8A5C56"/>
<path d="M21.5685 18.0712C21.8158 18.3184 22.1511 18.4574 22.5007 18.4574C22.8503 18.4574 23.1856 18.3185 23.4329 18.0712L30.4873 11.0167C31.7068 9.7983 32.3785 8.17751 32.3785 6.45301C32.3785 4.72859 31.7069 3.1078 30.4865 1.8885C28.3286 -0.263769 25.0033 -0.584921 22.5015 0.98085C19.9991 -0.588349 16.6726 -0.267021 14.5141 1.88938C13.2946 3.10789 12.623 4.72868 12.623 6.4531C12.623 8.1776 13.2946 9.79839 14.5137 11.0164L21.5685 18.0712ZM16.3777 3.75468C17.1218 3.01121 18.1003 2.63618 19.0801 2.63618C19.9878 2.63618 20.8966 2.95804 21.6213 3.60693C22.1217 4.055 22.8787 4.05526 23.3794 3.60773C24.8866 2.26036 27.1906 2.32523 28.6237 3.75468C29.3447 4.47503 29.7418 5.43348 29.7418 6.4531C29.7418 7.47289 29.3447 8.43116 28.6233 9.15195L22.5007 15.2746L16.3777 9.15152C15.6568 8.43116 15.2597 7.4728 15.2597 6.4531C15.2597 5.43339 15.6568 4.47503 16.3777 3.75468Z" fill="#8A5C56"/>
</g>
<defs>
<clipPath id="clip0">
<rect width="45" height="45" fill="white"/>
</clipPath>
</defs>
</svg>
