<svg width="45" height="45" viewBox="0 0 45 45" fill="none" xmlns="http://www.w3.org/2000/svg">
<path d="M42.3632 25.2246C42.3632 23.0438 40.5889 21.2695 38.4081 21.2695H32.5341C33.2619 19.3019 33.7132 16.9648 33.977 15.1944C34.2435 13.4073 33.7205 11.5982 32.542 10.231C31.3671 8.86781 29.661 8.08594 27.8612 8.08594C27.1332 8.08594 26.5429 8.67621 26.5429 9.4043C26.5429 12.5892 24.7126 17.3972 22.5766 18.4681C20.1722 19.6734 15.4423 21.009 14.5002 21.2695C13.912 21.2695 1.88684 21.2695 1.31836 21.2695C0.590273 21.2695 9.81379e-09 21.8598 9.81379e-09 22.5879V41.0449C-8.78808e-05 41.773 0.590186 42.3633 1.31827 42.3633H5.27335V43.6816C5.27335 44.4097 5.86362 45 6.59171 45H12.0409C13.6512 45 15.0387 44.0322 15.6552 42.6482L24.9048 44.9606C25.0094 44.9867 25.1168 45 25.2245 45H33.1347C35.3155 45 37.0898 43.2258 37.0898 41.0449C37.0898 40.5306 36.9911 40.0389 36.8117 39.5878C38.4893 39.1299 39.7265 37.5924 39.7265 35.7715C39.7265 35.2571 39.6278 34.7655 39.4484 34.3143C41.126 33.8564 42.3632 32.319 42.3632 30.498C42.3632 29.486 41.9811 28.5616 41.3537 27.8613C41.9811 27.1611 42.3632 26.2367 42.3632 25.2246ZM5.27326 39.7266H2.63654V23.9062H5.27326V39.7266ZM13.3592 41.0449C13.3592 41.7719 12.7678 42.3633 12.0408 42.3633H7.90998V23.9062H13.3592V41.0449ZM30.498 29.1797H38.4081C39.1351 29.1797 39.7265 29.7711 39.7265 30.498C39.7265 31.225 39.1351 31.8164 38.4081 31.8164C37.4141 31.8164 31.3104 31.8164 30.498 31.8164C29.7699 31.8164 29.1796 32.4067 29.1796 33.1348C29.1796 33.8629 29.7699 34.4531 30.498 34.4531H35.7714C36.4983 34.4531 37.0898 35.0445 37.0898 35.7715C37.0898 36.4984 36.4983 37.0898 35.7714 37.0898C35.2125 37.0898 31.0569 37.0898 30.498 37.0898C29.7699 37.0898 29.1796 37.6801 29.1796 38.4082C29.1796 39.1363 29.7699 39.7266 30.498 39.7266H33.1347C33.8616 39.7266 34.453 40.318 34.453 41.0449C34.453 41.7719 33.8616 42.3633 33.1347 42.3633H25.3869L15.996 40.0156V23.5877C17.7747 23.077 21.5476 21.9335 23.7582 20.8252C26.786 19.3073 28.64 14.506 29.0786 10.9381C29.6394 11.1432 30.1457 11.4893 30.545 11.9525C31.2221 12.738 31.5225 13.7779 31.3692 14.8056C30.7448 18.994 29.9614 20.7132 29.3188 21.9982C29.1145 22.4069 29.1363 22.8923 29.3765 23.2809C29.6167 23.6696 30.041 23.9062 30.498 23.9062H38.4081C39.1351 23.9062 39.7265 24.4977 39.7265 25.2246C39.7265 25.9516 39.1351 26.543 38.4081 26.543H30.498C29.7699 26.543 29.1796 27.1332 29.1796 27.8613C29.1796 28.5894 29.7699 29.1797 30.498 29.1797Z" fill="#8A5C56"/>
<path d="M29.1797 0C28.4516 0 27.8613 0.590273 27.8613 1.31836V4.13086C27.8613 4.85895 28.4516 5.44922 29.1797 5.44922C29.9078 5.44922 30.498 4.85895 30.498 4.13086V1.31836C30.498 0.590273 29.9078 0 29.1797 0Z" fill="#8A5C56"/>
<path d="M21.7224 6.67388L19.858 4.80946C19.3432 4.29459 18.5084 4.29459 17.9936 4.80946C17.4787 5.32432 17.4787 6.15902 17.9936 6.67388L19.858 8.53831C20.3728 9.05317 21.2076 9.05317 21.7224 8.53831C22.2373 8.02344 22.2373 7.18875 21.7224 6.67388Z" fill="#8A5C56"/>
<path d="M17.3145 14.6777H14.6777C13.9496 14.6777 13.3594 15.268 13.3594 15.9961C13.3594 16.7242 13.9496 17.3145 14.6777 17.3145H17.3145C18.0425 17.3145 18.6328 16.7242 18.6328 15.9961C18.6328 15.268 18.0425 14.6777 17.3145 14.6777Z" fill="#8A5C56"/>
<path d="M43.6816 14.6777H41.0449C40.3168 14.6777 39.7266 15.268 39.7266 15.9961C39.7266 16.7242 40.3168 17.3145 41.0449 17.3145H43.6816C44.4097 17.3145 45 16.7242 45 15.9961C45 15.268 44.4097 14.6777 43.6816 14.6777Z" fill="#8A5C56"/>
<path d="M40.367 4.80946C39.8522 4.29459 39.0174 4.29459 38.5025 4.80946L36.6381 6.67388C36.1232 7.18875 36.1232 8.02344 36.6381 8.53831C37.1529 9.05317 37.9878 9.05317 38.5025 8.53831L40.367 6.67388C40.8818 6.15902 40.8818 5.32432 40.367 4.80946Z" fill="#8A5C56"/>
</svg>
