<svg width="45" height="45" viewBox="0 0 45 45" fill="none" xmlns="http://www.w3.org/2000/svg">
<path d="M15.2222 30.2557C16.1448 29.1214 16.6992 27.6762 16.6992 26.1035V20.8301C16.6992 18.1646 14.5307 15.9961 11.8652 15.9961H8.34961C5.68415 15.9961 3.51562 18.1646 3.51562 20.8301V26.1035C3.51562 27.6762 4.07004 29.1214 4.99263 30.2557C2.12827 30.9724 0 33.5671 0 36.6504V43.6816C0 44.4097 0.590273 45 1.31836 45H18.8965C19.6246 45 20.2148 44.4097 20.2148 43.6816V36.6504C20.2148 33.5671 18.0866 30.9724 15.2222 30.2557ZM11.8753 32.6953L10.1074 38.8827L8.33959 32.6953H11.8753ZM6.15234 26.1035V22.1523C7.48178 23.2646 9.18211 23.9062 10.9541 23.9062H14.0625V26.1035C14.0625 28.2843 12.2883 30.0586 10.1074 30.0586C7.92659 30.0586 6.15234 28.2843 6.15234 26.1035ZM11.8652 18.6328C13.0768 18.6328 14.0625 19.6185 14.0625 20.8301V21.2695H10.9541C9.352 21.2695 7.84037 20.4593 6.94784 19.1394C7.32858 18.8233 7.81726 18.6328 8.34961 18.6328H11.8652ZM2.63672 36.6504C2.63672 34.8008 3.91315 33.2442 5.63124 32.8139L8.35963 42.3633H2.63672V36.6504ZM17.5781 42.3633H11.8552L14.5836 32.8139C16.3017 33.2442 17.5781 34.8008 17.5781 36.6504V42.3633Z" fill="#8A5C56"/>
<path d="M32.3787 6.45321C32.3787 4.72879 31.7071 3.108 30.4875 1.88948C28.329 -0.267175 25.0025 -0.58824 22.5001 0.980959C19.9983 -0.584724 16.6728 -0.263484 14.5142 1.88957C13.2947 3.108 12.623 4.72879 12.623 6.45321C12.623 8.17762 13.2947 9.79841 14.5138 11.0165L21.5687 18.0713C21.8262 18.3287 22.1636 18.4575 22.5009 18.4575C22.8382 18.4575 23.1757 18.3288 23.4331 18.0713L30.4876 11.0168C31.7071 9.79841 32.3787 8.17762 32.3787 6.45321ZM28.6235 9.15206L22.5009 15.2747L16.3779 9.15171C15.6569 8.43127 15.2598 7.473 15.2598 6.45321C15.2598 5.43341 15.6569 4.47514 16.377 3.75558C17.1215 3.01308 18.1002 2.63858 19.0805 2.63858C19.9885 2.63858 20.8975 2.9599 21.6223 3.60775C22.123 4.0552 22.8801 4.05493 23.3803 3.60696C24.8873 2.25748 27.1907 2.32261 28.6239 3.7547C29.3449 4.47514 29.742 5.43341 29.742 6.45321C29.742 7.473 29.3449 8.43127 28.6235 9.15206Z" fill="#8A5C56"/>
<path d="M40.0074 30.2557C40.93 29.1214 41.4844 27.6762 41.4844 26.1035V22.5879C41.4844 20.7446 40.7229 19.0764 39.4991 17.879C39.6491 17.4117 39.7266 16.925 39.7266 16.4355C39.7266 13.7701 37.558 11.6016 34.8926 11.6016C32.2271 11.6016 30.0586 13.7701 30.0586 16.4355C30.0586 16.925 30.136 17.4117 30.2861 17.879C29.0623 19.0764 28.3008 20.7446 28.3008 22.5879V26.1035C28.3008 27.6762 28.8552 29.1214 29.7778 30.2557C26.9134 30.9724 24.7852 33.5671 24.7852 36.6504V43.6816C24.7852 44.4097 25.3754 45 26.1035 45H43.6816C44.4097 45 45 44.4097 45 43.6816V36.6504C45 33.5671 42.8717 30.9724 40.0074 30.2557ZM30.9375 26.1035V23.9062H32.2559C33.2681 23.9062 34.1923 23.5236 34.8926 22.8959C35.5929 23.5236 36.5171 23.9062 37.5293 23.9062H38.8477V26.1035C38.8477 28.2843 37.0734 30.0586 34.8926 30.0586C32.7117 30.0586 30.9375 28.2843 30.9375 26.1035ZM33.5742 18.8596V19.9512C33.5742 20.6781 32.9828 21.2695 32.2559 21.2695H31.1643C31.5621 20.1477 32.4524 19.2575 33.5742 18.8596ZM38.6209 21.2695H37.5293C36.8024 21.2695 36.2109 20.6781 36.2109 19.9512V18.8596C37.3328 19.2575 38.223 20.1477 38.6209 21.2695ZM34.8926 14.2383C36.0833 14.2383 37.0552 15.1906 37.0883 16.3735C36.401 16.13 35.6622 15.9961 34.8926 15.9961C34.1229 15.9961 33.3841 16.13 32.6969 16.3735C32.7299 15.1906 33.7018 14.2383 34.8926 14.2383ZM31.377 32.6953H38.4082C40.4269 32.6953 42.096 34.2158 42.3332 36.1715C41.3169 35.6267 40.1077 35.332 38.8477 35.332C37.3696 35.332 35.9846 35.7304 34.8926 36.4496C33.8005 35.7304 32.4156 35.332 30.9375 35.332C29.6774 35.332 28.4683 35.6267 27.4519 36.1715C27.6892 34.2158 29.3583 32.6953 31.377 32.6953ZM42.3633 42.3633H27.4219V40.166C27.4219 38.9955 29.0646 37.9688 30.9375 37.9688C32.1573 37.9688 33.2815 38.3784 33.9445 39.0646C34.1929 39.3216 34.5351 39.4668 34.8926 39.4668C35.25 39.4668 35.5923 39.3216 35.8407 39.0646C36.5037 38.3784 37.6278 37.9688 38.8477 37.9688C40.7205 37.9688 42.3633 38.9955 42.3633 40.166V42.3633Z" fill="#8A5C56"/>
</svg>
