<svg width="45" height="45" viewBox="0 0 45 45" fill="none" xmlns="http://www.w3.org/2000/svg">
<path d="M35.7715 4.04297H9.22852C4.13979 4.04297 0 8.18275 0 13.2715V27.5249C0 31.5854 2.6659 35.1219 6.52897 36.2539L10.986 40.7112C11.2335 40.9584 11.5686 41.0975 11.9184 41.0975C12.268 41.0975 12.6034 40.9584 12.8506 40.7112L16.9392 36.6222H35.7715C40.8602 36.6222 45 32.4825 45 27.3937V13.2715C45 8.18275 40.8602 4.04297 35.7715 4.04297ZM42.3633 27.3937C42.3633 31.0285 39.4062 33.9855 35.7715 33.9855H16.3933C16.0438 33.9855 15.7084 34.1246 15.4612 34.3718L11.9184 37.9145L8.14533 34.1414C7.97607 33.9721 7.7639 33.852 7.53147 33.7943C4.64962 33.0771 2.63672 30.4991 2.63672 27.5249V13.2715C2.63672 9.63673 5.59376 6.67969 9.22852 6.67969H35.7715C39.4062 6.67969 42.3633 9.63673 42.3633 13.2715V27.3937Z" fill="#8A5C56"/>
<path d="M30.8707 16.6841H14.1289C13.4007 16.6841 12.8105 17.2746 12.8105 18.0025C12.8105 18.7307 13.4007 19.3208 14.1289 19.3208H30.8707C31.5989 19.3208 32.1891 18.7307 32.1891 18.0025C32.1891 17.2746 31.5989 16.6841 30.8707 16.6841Z" fill="#8A5C56"/>
<path d="M30.8707 21.3444H14.1289C13.4007 21.3444 12.8105 21.9345 12.8105 22.6627C12.8105 23.3909 13.4007 23.9811 14.1289 23.9811H30.8707C31.5989 23.9811 32.1891 23.3909 32.1891 22.6627C32.1891 21.9345 31.5989 21.3444 30.8707 21.3444Z" fill="#8A5C56"/>
</svg>
