<svg width="61" height="61" viewBox="0 0 61 61" fill="none" xmlns="http://www.w3.org/2000/svg">
<circle cx="30.5" cy="30.5" r="30.5" fill="#EFDFD8"/>
<g clip-path="url(#clip0)">
<path d="M45.2234 17.9614C43.4116 15.9963 40.9256 14.9141 38.2227 14.9141C36.2024 14.9141 34.3522 15.5528 32.7233 16.8124C31.9014 17.4482 31.1566 18.226 30.5 19.1339C29.8436 18.2263 29.0986 17.4482 28.2765 16.8124C26.6478 15.5528 24.7976 14.9141 22.7773 14.9141C20.0744 14.9141 17.5881 15.9963 15.7763 17.9614C13.9861 19.9035 13 22.5567 13 25.4326C13 28.3926 14.1031 31.1021 16.4714 33.9599C18.59 36.5162 21.6349 39.1111 25.161 42.116C26.3651 43.1422 27.7298 44.3054 29.147 45.5444C29.5213 45.8723 30.0017 46.0528 30.5 46.0528C30.998 46.0528 31.4787 45.8723 31.8525 45.5449C33.2696 44.3057 34.6352 43.1419 35.8398 42.1152C39.3654 39.1109 42.4103 36.5162 44.5289 33.9596C46.8972 31.1021 48 28.3926 48 25.4323C48 22.5567 47.0139 19.9035 45.2234 17.9614Z" fill="white"/>
</g>
<defs>
<clipPath id="clip0">
<rect width="35" height="35" fill="white" transform="translate(13 13)"/>
</clipPath>
</defs>
</svg>
