<svg width="40" height="26" viewBox="0 0 40 26" fill="none" xmlns="http://www.w3.org/2000/svg">
<g clip-path="url(#clip0)">
<path d="M39.1666 2.0968H0.833359C0.373359 2.0968 0 2.47257 0 2.93554C0 3.39851 0.373359 3.77427 0.833359 3.77427H39.1667C39.6267 3.77427 40.0001 3.39851 40.0001 2.93554C40.0001 2.47257 39.6266 2.0968 39.1666 2.0968Z" fill="#370E1D"/>
<path d="M39.1666 12.1613H0.833359C0.373359 12.1613 0 12.537 0 13C0 13.463 0.373359 13.8387 0.833359 13.8387H39.1667C39.6267 13.8387 40.0001 13.463 40.0001 13C40.0001 12.537 39.6266 12.1613 39.1666 12.1613Z" fill="#370E1D"/>
<path d="M39.1666 22.2258H0.833359C0.373359 22.2258 0 22.6015 0 23.0645C0 23.5275 0.373359 23.9032 0.833359 23.9032H39.1667C39.6267 23.9032 40.0001 23.5275 40.0001 23.0645C40 22.6015 39.6266 22.2258 39.1666 22.2258Z" fill="#370E1D"/>
</g>
<defs>
<clipPath id="clip0">
<rect width="40" height="26" fill="white"/>
</clipPath>
</defs>
</svg>
