<svg width="24" height="24" viewBox="0 0 24 24" fill="none" xmlns="http://www.w3.org/2000/svg">
<path d="M23.806 22.8627L12.9435 12.0002L23.8046 1.13899C24.0646 0.878989 24.0646 0.456307 23.8046 0.19631C23.5446 -0.0636867 23.122 -0.0636867 22.862 0.19631L12.0008 11.0575L1.13963 0.194997C0.879629 -0.0649991 0.456947 -0.0649991 0.196951 0.194997C-0.063046 0.454994 -0.063046 0.877676 0.196951 1.13767L11.0581 12.0002L0.196951 22.8614C-0.063046 23.1214 -0.063046 23.5441 0.196951 23.8041C0.326261 23.9347 0.496947 24.0001 0.667632 24.0001C0.838317 24.0001 1.00894 23.9347 1.13963 23.8054L12.0008 12.9428L22.862 23.804C22.9927 23.9347 23.1633 24 23.334 24C23.5046 24 23.6753 23.9347 23.806 23.8053C24.066 23.5454 24.066 23.1227 23.806 22.8627Z" fill="#370E1D"/>
</svg>
