<svg width="51" height="50" viewBox="0 0 51 50" fill="none" xmlns="http://www.w3.org/2000/svg">
<circle cx="22.5" cy="22.5" r="22.5" fill="#FCFAF9"/>
<path d="M21.2222 35.2557C22.1448 34.1214 22.6992 32.6762 22.6992 31.1035V25.8301C22.6992 23.1646 20.5307 20.9961 17.8652 20.9961H14.3496C11.6842 20.9961 9.51562 23.1646 9.51562 25.8301V31.1035C9.51562 32.6762 10.07 34.1214 10.9926 35.2557C8.12827 35.9724 6 38.5671 6 41.6504V48.6816C6 49.4097 6.59027 50 7.31836 50H24.8965C25.6246 50 26.2148 49.4097 26.2148 48.6816V41.6504C26.2148 38.5671 24.0866 35.9724 21.2222 35.2557ZM17.8753 37.6953L16.1074 43.8827L14.3396 37.6953H17.8753ZM12.1523 31.1035V27.1523C13.4818 28.2646 15.1821 28.9062 16.9541 28.9062H20.0625V31.1035C20.0625 33.2843 18.2883 35.0586 16.1074 35.0586C13.9266 35.0586 12.1523 33.2843 12.1523 31.1035ZM17.8652 23.6328C19.0768 23.6328 20.0625 24.6185 20.0625 25.8301V26.2695H16.9541C15.352 26.2695 13.8404 25.4593 12.9478 24.1394C13.3286 23.8233 13.8173 23.6328 14.3496 23.6328H17.8652ZM8.63672 41.6504C8.63672 39.8008 9.91315 38.2442 11.6312 37.8139L14.3596 47.3633H8.63672V41.6504ZM23.5781 47.3633H17.8552L20.5836 37.8139C22.3017 38.2442 23.5781 39.8008 23.5781 41.6504V47.3633Z" fill="#8A5C56"/>
<path d="M38.3787 11.4532C38.3787 9.72879 37.7071 8.108 36.4875 6.88948C34.329 4.73282 31.0025 4.41176 28.5001 5.98096C25.9983 4.41528 22.6728 4.73652 20.5142 6.88957C19.2947 8.108 18.623 9.72879 18.623 11.4532C18.623 13.1776 19.2947 14.7984 20.5138 16.0165L27.5687 23.0713C27.8262 23.3287 28.1636 23.4575 28.5009 23.4575C28.8382 23.4575 29.1757 23.3288 29.4331 23.0713L36.4876 16.0168C37.7071 14.7984 38.3787 13.1776 38.3787 11.4532ZM34.6235 14.1521L28.5009 20.2747L22.3779 14.1517C21.6569 13.4313 21.2598 12.473 21.2598 11.4532C21.2598 10.4334 21.6569 9.47514 22.377 8.75558C23.1215 8.01308 24.1002 7.63858 25.0805 7.63858C25.9885 7.63858 26.8975 7.9599 27.6223 8.60775C28.123 9.0552 28.8801 9.05493 29.3803 8.60696C30.8873 7.25748 33.1907 7.32261 34.6239 8.7547C35.3449 9.47514 35.742 10.4334 35.742 11.4532C35.742 12.473 35.3449 13.4313 34.6235 14.1521Z" fill="#8A5C56"/>
<path d="M46.0074 35.2557C46.93 34.1214 47.4844 32.6762 47.4844 31.1035V27.5879C47.4844 25.7446 46.7229 24.0764 45.4991 22.879C45.6491 22.4117 45.7266 21.925 45.7266 21.4355C45.7266 18.7701 43.558 16.6016 40.8926 16.6016C38.2271 16.6016 36.0586 18.7701 36.0586 21.4355C36.0586 21.925 36.136 22.4117 36.2861 22.879C35.0623 24.0764 34.3008 25.7446 34.3008 27.5879V31.1035C34.3008 32.6762 34.8552 34.1214 35.7778 35.2557C32.9134 35.9724 30.7852 38.5671 30.7852 41.6504V48.6816C30.7852 49.4097 31.3754 50 32.1035 50H49.6816C50.4097 50 51 49.4097 51 48.6816V41.6504C51 38.5671 48.8717 35.9724 46.0074 35.2557ZM36.9375 31.1035V28.9062H38.2559C39.2681 28.9062 40.1923 28.5236 40.8926 27.8959C41.5929 28.5236 42.5171 28.9062 43.5293 28.9062H44.8477V31.1035C44.8477 33.2843 43.0734 35.0586 40.8926 35.0586C38.7117 35.0586 36.9375 33.2843 36.9375 31.1035ZM39.5742 23.8596V24.9512C39.5742 25.6781 38.9828 26.2695 38.2559 26.2695H37.1643C37.5621 25.1477 38.4524 24.2575 39.5742 23.8596ZM44.6209 26.2695H43.5293C42.8024 26.2695 42.2109 25.6781 42.2109 24.9512V23.8596C43.3328 24.2575 44.223 25.1477 44.6209 26.2695ZM40.8926 19.2383C42.0833 19.2383 43.0552 20.1906 43.0883 21.3735C42.401 21.13 41.6622 20.9961 40.8926 20.9961C40.1229 20.9961 39.3841 21.13 38.6969 21.3735C38.7299 20.1906 39.7018 19.2383 40.8926 19.2383ZM37.377 37.6953H44.4082C46.4269 37.6953 48.096 39.2158 48.3332 41.1715C47.3169 40.6267 46.1077 40.332 44.8477 40.332C43.3696 40.332 41.9846 40.7304 40.8926 41.4496C39.8005 40.7304 38.4156 40.332 36.9375 40.332C35.6774 40.332 34.4683 40.6267 33.4519 41.1715C33.6892 39.2158 35.3583 37.6953 37.377 37.6953ZM48.3633 47.3633H33.4219V45.166C33.4219 43.9955 35.0646 42.9688 36.9375 42.9688C38.1573 42.9688 39.2815 43.3784 39.9445 44.0646C40.1929 44.3216 40.5351 44.4668 40.8926 44.4668C41.25 44.4668 41.5923 44.3216 41.8407 44.0646C42.5037 43.3784 43.6278 42.9688 44.8477 42.9688C46.7205 42.9688 48.3633 43.9955 48.3633 45.166V47.3633Z" fill="#8A5C56"/>
</svg>
